<svg xmlns="http://www.w3.org/2000/svg" width="430" height="430" style="width:100%;height:100%;transform:translate3d(0,0,0);content-visibility:visible" viewBox="0 0 430 430"><defs><clipPath id="i"><path d="M0 0h430v430H0z"/></clipPath><clipPath id="q"><path d="M0 0h430v430H0z"/></clipPath><clipPath id="n"><path d="M0 0h430v430H0z"/></clipPath><clipPath id="m"><path d="M0 0h430v430H0z"/></clipPath><clipPath id="j"><path d="M0 0h430v430H0z"/></clipPath><clipPath id="k"><path d="M0 0h430v430H0z"/></clipPath><path id="a" style="display:none"/><path id="b" style="display:none"/><path id="h" style="display:none"/><path id="d" style="display:none"/><path id="f" style="display:none"/><mask id="s" mask-type="alpha"><use xmlns:ns1="http://www.w3.org/1999/xlink" ns1:href="#a"/></mask><mask id="r" mask-type="alpha"><use xmlns:ns2="http://www.w3.org/1999/xlink" ns2:href="#b"/></mask><mask id="p" mask-type="alpha"><g filter="url(#c)"><path fill="#fff" d="M0 0h430v430H0z" opacity="0"/><use xmlns:ns3="http://www.w3.org/1999/xlink" ns3:href="#d"/></g></mask><mask id="o" mask-type="alpha"><g filter="url(#e)"><path fill="#fff" d="M0 0h430v430H0z" opacity="0"/><use xmlns:ns4="http://www.w3.org/1999/xlink" ns4:href="#f"/></g></mask><mask id="l" mask-type="alpha"><g filter="url(#g)"><path fill="#fff" d="M0 0h430v430H0z" opacity="0"/><use xmlns:ns5="http://www.w3.org/1999/xlink" ns5:href="#h"/></g></mask><filter id="c" width="100%" height="100%" x="0%" y="0%" filterUnits="objectBoundingBox"><feComponentTransfer in="SourceGraphic"><feFuncA tableValues="1.0 0.0" type="table"/></feComponentTransfer></filter><filter id="e" width="100%" height="100%" x="0%" y="0%" filterUnits="objectBoundingBox"><feComponentTransfer in="SourceGraphic"><feFuncA tableValues="1.0 0.0" type="table"/></feComponentTransfer></filter><filter id="g" width="100%" height="100%" x="0%" y="0%" filterUnits="objectBoundingBox"><feComponentTransfer in="SourceGraphic"><feFuncA tableValues="1.0 0.0" type="table"/></feComponentTransfer></filter></defs><g clip-path="url(#i)"><g clip-path="url(#j)" style="display:none"><g clip-path="url(#k)" style="display:none"><g mask="url(#l)" style="display:none"><path fill="none" class="primary"/></g><g fill="none" style="display:none"><path class="secondary"/><path class="primary"/></g><g fill="none" style="display:none"><path class="secondary"/><path class="primary"/></g><path fill="none" class="primary" style="display:none"/></g></g><g fill="none" clip-path="url(#m)" style="display:none"><path class="secondary" style="display:none"/><g style="display:none"><path class="secondary"/><path class="secondary"/></g><path class="secondary" style="display:none"/><g style="display:none"><path class="secondary"/><path class="secondary"/></g><path class="primary" style="display:none"/></g><g clip-path="url(#n)" style="display:block"><g mask="url(#o)" style="display:none"><path fill="none" class="secondary"/></g><path fill="none" class="secondary" style="display:none"/><g mask="url(#p)" style="display:none"><path fill="none" stroke="#E82F8B" stroke-linecap="round" stroke-linejoin="round" stroke-width="11.984" d="M169.888 124.931h-44.8l135.04 180.075h44.8z" class="secondary"/></g><path fill="none" stroke="#E82F8B" stroke-linecap="round" stroke-linejoin="round" stroke-width="21.4" d="M-80.558-160.837h-80L80.586 160.725h80z" class="secondary" style="display:block" transform="matrix(.56 0 0 .56 215 215)"/><path fill="none" stroke="#E82F8B" stroke-linecap="round" stroke-linejoin="round" stroke-width="11.984" d="m202.2 227.8-77.425 77.425M227.8 202.2l77.425-77.425" class="secondary" style="display:none"/><path fill="none" stroke="#E82F8B" stroke-linecap="round" stroke-linejoin="round" stroke-width="11.984" d="m202.2 227.8-77.425 77.425M227.8 202.2l77.425-77.425" class="secondary" style="display:block"/><path fill="none" stroke="#66D6ED" stroke-linejoin="round" stroke-width="12" d="M160-140v280c0 11.038-8.962 20-20 20h-280c-11.038 0-20-8.962-20-20v-280c0-11.038 8.962-20 20-20h280c11.038 0 20 8.962 20 20z" class="primary" style="display:block" transform="translate(215 215)"/></g><g clip-path="url(#q)" style="display:none"><g mask="url(#r)" style="display:none"><path fill="none" class="secondary"/></g><path fill="none" class="secondary" style="display:none"/><g fill="none" mask="url(#s)" style="display:none"><path class="secondary"/><path class="secondary"/></g><g fill="none" style="display:none"><path class="secondary"/><path class="secondary"/></g><path fill="none" class="primary" style="display:none"/><path fill="none" class="primary" style="display:none"/></g></g></svg>