<svg xmlns="http://www.w3.org/2000/svg" width="430" height="430" style="width:100%;height:100%;transform:translate3d(0,0,0);content-visibility:visible" viewBox="0 0 430 430"><defs><clipPath id="u"><path d="M0 0h430v430H0z"/></clipPath><clipPath id="K"><path d="M0 0h430v430H0z"/></clipPath><clipPath id="j"><path d="M0 0h430v430H0z"/></clipPath><clipPath id="H"><path d="M0 0h430v430H0z"/></clipPath><clipPath id="l"><path d="M0 0h430v430H0z"/></clipPath><clipPath id="E"><path d="M0 0h430v430H0z"/></clipPath><clipPath id="n"><path d="M0 0h430v430H0z"/></clipPath><clipPath id="B"><path d="M0 0h430v430H0z"/></clipPath><clipPath id="p"><path d="M0 0h430v430H0z"/></clipPath><clipPath id="q"><path d="M0 0h430v430H0z"/></clipPath><clipPath id="r"><path d="M0 0h430v430H0z"/></clipPath><clipPath id="y"><path d="M0 0h430v430H0z"/></clipPath><clipPath id="s"><path d="M0 0h430v430H0z"/></clipPath><clipPath id="v"><path d="M0 0h430v430H0z"/></clipPath><clipPath id="t"><path d="M0 0h430v430H0z"/></clipPath><filter id="L" width="300%" height="300%" x="-100%" y="-100%"><feGaussianBlur result="filter_result_0"/></filter><filter id="J" width="300%" height="300%" x="-100%" y="-100%"><feGaussianBlur result="filter_result_0" stdDeviation="52.5 52.5"/></filter><filter id="F" width="300%" height="300%" x="-100%" y="-100%"><feGaussianBlur result="filter_result_0"/></filter><filter id="C" width="300%" height="300%" x="-100%" y="-100%"><feGaussianBlur result="filter_result_0"/></filter><filter id="z" width="300%" height="300%" x="-100%" y="-100%"><feGaussianBlur result="filter_result_0"/></filter><filter id="w" width="300%" height="300%" x="-100%" y="-100%"><feGaussianBlur result="filter_result_0"/></filter><mask id="M" mask-type="alpha"><use xmlns:ns1="http://www.w3.org/1999/xlink" ns1:href="#a"/></mask><mask id="I" mask-type="alpha"><use xmlns:ns2="http://www.w3.org/1999/xlink" ns2:href="#b"/></mask><mask id="G" mask-type="alpha"><use xmlns:ns3="http://www.w3.org/1999/xlink" ns3:href="#d"/></mask><mask id="D" mask-type="alpha"><use xmlns:ns4="http://www.w3.org/1999/xlink" ns4:href="#f"/></mask><mask id="A" mask-type="alpha"><use xmlns:ns5="http://www.w3.org/1999/xlink" ns5:href="#h"/></mask><mask id="x" mask-type="alpha"><use xmlns:ns6="http://www.w3.org/1999/xlink" ns6:href="#i"/></mask><g id="a" fill-opacity="0" clip-path="url(#j)" style="display:none"><path stroke-linecap="round" stroke-linejoin="round" class="secondary" style="display:none"/><path class="secondary" style="display:none"/><path stroke-linecap="round" stroke-linejoin="round" class="secondary" style="display:none"/><path stroke-linecap="round" stroke-linejoin="round" class="primary" style="display:none"/></g><g id="b" fill-opacity="0" clip-path="url(#l)" style="display:block"><path stroke="#08A88A" stroke-width="19" d="M-104-159.9c-31.038 0-56.2 25.162-56.2 56.2l-.2 206.407c0 31.863 25.83 57.693 57.693 57.693l205.812-.2c31.533 0 57.095-25.562 57.095-57.095l.2-206.305c0-31.425-25.475-56.9-56.9-56.9z" class="secondary" style="display:block" transform="translate(215 215)scale(.625)"/><g style="display:block"><path fill="#08A88A" d="M215 162.47c28.991 0 52.53 23.539 52.53 52.53s-23.539 52.53-52.53 52.53-52.53-23.539-52.53-52.53 23.539-52.53 52.53-52.53" class="secondary"/><path stroke="#08A88A" stroke-width="12.051" d="M215 162.47c28.991 0 52.53 23.539 52.53 52.53s-23.539 52.53-52.53 52.53-52.53-23.539-52.53-52.53 23.539-52.53 52.53-52.53z" class="secondary"/></g><path stroke="#08A88A" stroke-linecap="round" stroke-linejoin="round" stroke-width="24" d="M99.938-100.5h-.063" class="secondary" style="display:block" transform="translate(214.75 215.564)scale(.628)"/><path stroke="#121331" stroke-linecap="round" stroke-linejoin="round" stroke-width="12" d="M0-167.5c92.443 0 167.5 75.057 167.5 167.5S92.443 167.5 0 167.5-167.5 92.443-167.5 0-92.443-167.5 0-167.5" class="primary" style="display:block" transform="rotate(-45 367.028 -152.028)"/></g><g id="d" clip-path="url(#n)" style="display:none"><path fill-opacity="0" class="secondary" style="display:none"/><path fill-opacity="0" stroke-linecap="round" stroke-linejoin="round" class="secondary" style="display:none"/><path fill-opacity="0" stroke-linecap="round" stroke-linejoin="round" class="secondary" style="display:none"/><path fill-opacity="0" class="secondary" style="display:none"/><path fill-opacity="0" stroke-linecap="round" stroke-linejoin="round" class="secondary" style="display:none"/><g style="display:none"><path class="secondary"/><path fill-opacity="0" class="secondary"/></g><path fill-opacity="0" stroke-linecap="round" stroke-linejoin="round" class="primary" style="display:none"/></g><g id="f" clip-path="url(#p)" style="display:none"><g clip-path="url(#q)" style="display:none"><path fill-opacity="0" stroke-linecap="round" stroke-linejoin="round" class="primary" style="display:none"/><path fill-opacity="0" stroke-linecap="round" stroke-linejoin="round" class="primary" style="display:none"/><path fill-opacity="0" stroke-linecap="round" stroke-linejoin="round" class="secondary" style="display:none"/><g style="display:none"><path class="secondary"/><path fill-opacity="0" stroke-linecap="round" stroke-linejoin="round" class="secondary"/></g><path fill-opacity="0" stroke-linecap="round" stroke-linejoin="round" class="secondary" style="display:none"/><path fill-opacity="0" stroke-linecap="round" stroke-linejoin="round" class="primary" style="display:none"/><path fill-opacity="0" stroke-linecap="round" stroke-linejoin="round" class="primary" style="display:none"/><path fill-opacity="0" stroke-linecap="round" stroke-linejoin="round" class="primary" style="display:none"/></g><g clip-path="url(#r)" style="display:none"><path fill-opacity="0" stroke-linecap="round" stroke-linejoin="round" class="primary" style="display:none"/><path fill-opacity="0" stroke-linecap="round" stroke-linejoin="round" class="primary" style="display:none"/><path fill-opacity="0" stroke-linecap="round" stroke-linejoin="round" class="secondary" style="display:none"/><g style="display:none"><path class="secondary"/><path fill-opacity="0" stroke-linecap="round" stroke-linejoin="round" class="secondary"/></g><path fill-opacity="0" stroke-linecap="round" stroke-linejoin="round" class="secondary" style="display:none"/><path fill-opacity="0" stroke-linecap="round" stroke-linejoin="round" class="primary" style="display:none"/><path fill-opacity="0" stroke-linecap="round" stroke-linejoin="round" class="primary" style="display:none"/><path fill-opacity="0" stroke-linecap="round" stroke-linejoin="round" class="primary" style="display:none"/></g></g><g id="h" clip-path="url(#s)" style="display:none"><path fill-opacity="0" stroke-linecap="round" stroke-linejoin="round" class="primary" style="display:none"/><path fill-opacity="0" stroke-linecap="round" stroke-linejoin="round" class="primary" style="display:none"/><path fill-opacity="0" stroke-linecap="round" stroke-linejoin="round" class="secondary" style="display:none"/><g style="display:none"><path class="secondary"/><path fill-opacity="0" stroke-linecap="round" stroke-linejoin="round" class="secondary"/></g><path fill-opacity="0" stroke-linecap="round" stroke-linejoin="round" class="secondary" style="display:none"/><path fill-opacity="0" stroke-linecap="round" stroke-linejoin="round" class="primary" style="display:none"/><path fill-opacity="0" stroke-linecap="round" stroke-linejoin="round" class="primary" style="display:none"/><path fill-opacity="0" stroke-linecap="round" stroke-linejoin="round" class="primary" style="display:none"/></g><g id="i" clip-path="url(#t)" style="display:none"><g fill-opacity="0" stroke-linecap="round" stroke-linejoin="round" style="display:none"><path class="secondary"/><path class="primary"/></g><g style="display:none"><path class="secondary"/><path fill-opacity="0" class="secondary"/></g><g fill-opacity="0" stroke-linecap="round" stroke-linejoin="round" style="display:none"><path class="secondary"/><path class="primary"/></g><g fill-opacity="0" stroke-linecap="round" stroke-linejoin="round" style="display:none"><path class="primary"/><path class="primary"/></g></g></defs><g clip-path="url(#u)"><g clip-path="url(#v)" filter="url(#w)" mask="url(#x)" style="display:none"><g class="design"><path class="primary"/></g><g class="design"><path class="secondary"/></g></g><g clip-path="url(#y)" filter="url(#z)" mask="url(#A)" style="display:none"><g class="design"><path class="primary"/></g><g class="design"><path class="secondary"/></g></g><g clip-path="url(#B)" filter="url(#C)" mask="url(#D)" style="display:none"><g class="design"><path class="primary"/></g><g class="design"><path class="secondary"/></g></g><g clip-path="url(#E)" filter="url(#F)" mask="url(#G)" style="display:none"><g class="design"><path class="primary"/></g><g class="design"><path class="secondary"/></g></g><g clip-path="url(#H)" mask="url(#I)" style="display:block"><g filter="url(#J)" transform="rotate(-94 238.762 -16.565)scale(2.4)"><g class="design"><path fill="#66EDCE" d="M0-250c137.975 0 250 112.025 250 250S137.975 250 0 250-250 137.975-250 0-137.975-250 0-250" class="primary"/></g><g class="design"><path fill="#CA5EED" d="M113.242-295.384c97.478 0 176.5 79.022 176.5 176.5s-79.022 176.5-176.5 176.5c-43.948 0-74.396-34.057-105.29-60.631-37.631-32.369-71.21-62.338-71.21-115.869 0-97.478 79.022-176.5 176.5-176.5" class="secondary"/></g></g></g><g clip-path="url(#K)" filter="url(#L)" mask="url(#M)" style="display:none"><g class="design"><path class="primary"/></g><g class="design"><path class="secondary"/></g></g></g></svg>