<svg xmlns="http://www.w3.org/2000/svg" width="430" height="430" fill="none" viewBox="0 0 430 430"><g fill-rule="evenodd" clip-rule="evenodd"><path fill="url(#nHeU6pYnnba)" d="M158.218 109.015c2.179-.13 4.86.598 6.643 3.059 1.759 2.395 5.126 7.074 8.668 11.994 1.768 2.457 3.58 4.974 5.256 7.298 5.209 7.089 10.997 15.047 13.06 17.92 1.683 2.307 1.882 4.933 1.701 6.877-.186 2.012-.832 4.005-1.646 5.817-1.637 3.644-4.384 7.494-7.775 10.885-2.4 2.399-3.819 4.905-4.366 6.783-.268.92-.277 1.427-.252 1.655l68.761 68.761a7 7 0 0 0 1.034-.31c1.869-.698 4.411-2.291 6.916-4.796 3.349-3.349 7.09-6.101 10.573-7.797 1.724-.84 3.63-1.541 5.552-1.808 1.808-.251 4.557-.234 6.975 1.543 1.017.749 3.025 2.207 5.603 4.079 3.76 2.731 8.731 6.342 13.607 9.912 5.197 3.805 10.585 7.727 14.64 10.679l.023.017c2.365 1.721 4.275 3.112 5.426 3.954 2.86 2.093 3.094 5.249 2.766 7.157-.295 1.719-1.096 3.234-1.774 4.331-1.431 2.313-3.711 4.943-6.387 7.652-5.449 5.516-13.581 12.393-23.094 19.399-11.591 8.536-28.136 8.523-44.349 3.512-16.46-5.086-33.913-15.67-48.671-30.428l-44.097-44.097c-14.757-14.756-25.373-32.223-30.515-48.711-5.064-16.241-5.156-32.821 3.278-44.485 6.954-9.618 13.907-17.766 19.588-23.137 2.782-2.631 5.559-4.885 8.08-6.23 1.216-.648 2.889-1.371 4.776-1.485m21.321 72.437s-.009-.015-.016-.048a.2.2 0 0 1 .016.048m-44.041-34.553c6.681-9.24 13.145-16.757 18.108-21.449 1.51-1.428 2.777-2.494 3.786-3.246 1.747 2.413 3.991 5.532 6.331 8.782l.004.006c1.785 2.48 3.625 5.037 5.342 7.416l.03.042a2860 2860 0 0 1 12.421 17.034c-.086.36-.255.886-.565 1.577-.937 2.085-2.759 4.763-5.316 7.319-3.548 3.548-6.189 7.751-7.401 11.912-1.142 3.92-1.357 9.355 2.542 13.255l69.772 69.771c4.033 4.033 9.718 2.886 12.952 1.677 3.807-1.423 7.756-4.109 11.199-7.552 2.598-2.597 5.276-4.487 7.341-5.493.545-.266.983-.438 1.312-.547 1.104.805 2.656 1.932 4.49 3.265l.007.005c3.806 2.765 8.827 6.412 13.586 9.896a6566 6566 0 0 0 14.905 10.872l1.641 1.195c-.815.991-1.906 2.197-3.3 3.608-4.867 4.927-12.474 11.395-21.673 18.17-7.121 5.244-19.043 6.236-33.69 1.709-14.401-4.45-30.201-13.921-43.729-27.448l-44.097-44.097c-13.529-13.53-23.039-29.353-27.544-43.798-4.582-14.692-3.656-26.688 1.546-33.881m46.104 8.069v.029zm92.469 92.264-.047.003z"/><path fill="url(#Acxr8bTLyUb)" d="M219.5 36C123.679 36 46 113.679 46 209.5c0 39.395 13.137 75.737 35.264 104.863l-11.843 63.03a6 6 0 0 0 8.012 6.723l59.033-22.239C161.134 375.346 189.432 383 219.5 383c95.821 0 173.5-77.679 173.5-173.5S315.321 36 219.5 36M58 209.5C58 120.306 130.306 48 219.5 48S381 120.306 381 209.5 308.694 371 219.5 371c-28.948 0-56.101-7.611-79.585-20.937a6 6 0 0 0-5.076-.397l-51.655 19.46 10.37-55.191a6 6 0 0 0-1.176-4.813C70.84 281.679 58 247.097 58 209.5"/></g><defs><linearGradient id="nHeU6pYnnba" x1="159.512" x2="345.587" y1="113.394" y2="322.082" gradientUnits="userSpaceOnUse"><stop stop-color="#cb5eee"/><stop offset="1" stop-color="#4be1ec"/></linearGradient><linearGradient id="Acxr8bTLyUb" x1="159.512" x2="345.587" y1="113.394" y2="322.082" gradientUnits="userSpaceOnUse"><stop stop-color="#cb5eee"/><stop offset="1" stop-color="#4be1ec"/></linearGradient></defs></svg>